<svg width="28" height="46" viewBox="0 0 28 46" fill="none" xmlns="http://www.w3.org/2000/svg">
<path d="M12.6513 45.4545V0.909088H15.505V45.4545H12.6513ZM20.8817 15.1602C20.7193 13.6405 20.0349 12.4573 18.8285 11.6104C17.6336 10.7636 16.0792 10.3402 14.1651 10.3402C12.8195 10.3402 11.6652 10.5432 10.7024 10.9492C9.73958 11.3552 9.00296 11.9062 8.49254 12.6023C7.98213 13.2983 7.72112 14.0929 7.70952 14.9862C7.70952 15.7286 7.87772 16.3724 8.21413 16.9176C8.56215 17.4628 9.03196 17.9268 9.62358 18.3097C10.2152 18.6809 10.8706 18.9941 11.5898 19.2493C12.3091 19.5045 13.0341 19.7191 13.7649 19.8931L17.1058 20.7283C18.4515 21.0415 19.7449 21.465 20.9862 21.9986C22.239 22.5322 23.3584 23.205 24.3445 24.017C25.3421 24.8291 26.1309 25.8093 26.7109 26.9577C27.291 28.1062 27.581 29.4518 27.581 30.9947C27.581 33.0827 27.0473 34.9214 25.9801 36.5107C24.9129 38.0883 23.37 39.3237 21.3516 40.217C19.3447 41.0986 16.9144 41.5394 14.0607 41.5394C11.2882 41.5394 8.88116 41.1102 6.83949 40.2518C4.80942 39.3933 3.22017 38.1405 2.07173 36.4933C0.934896 34.846 0.320076 32.8391 0.227273 30.4727H6.57848C6.67128 31.7139 7.0541 32.7463 7.72692 33.57C8.39974 34.3936 9.27557 35.0084 10.3544 35.4144C11.4448 35.8204 12.6629 36.0234 14.0085 36.0234C15.4122 36.0234 16.6418 35.8146 17.6974 35.397C18.7647 34.9678 19.5999 34.3762 20.2031 33.6222C20.8063 32.8565 21.1138 31.9633 21.1254 30.9425C21.1138 30.0144 20.8411 29.2488 20.3075 28.6456C19.7739 28.0308 19.0257 27.5204 18.0629 27.1143C17.1116 26.6967 15.998 26.3255 14.7219 26.0007L10.6676 24.9567C7.73272 24.2027 5.41264 23.06 3.70739 21.5288C2.01373 19.9859 1.1669 17.9384 1.1669 15.3864C1.1669 13.2867 1.73532 11.448 2.87216 9.87038C4.0206 8.29273 5.58085 7.06889 7.55291 6.19886C9.52498 5.31723 11.758 4.87642 14.2521 4.87642C16.781 4.87642 18.9967 5.31723 20.8991 6.19886C22.8132 7.06889 24.3155 8.28113 25.4059 9.83558C26.4963 11.3784 27.0589 13.1533 27.0938 15.1602H20.8817Z" fill="black"/>
</svg>
